<?xml version="1.0" encoding="UTF-8" standalone="no"?>
<svg
   version="1.1"
   viewBox="0 0 337.16068 304.99716"
   id="svg262"
   width="337.16068"
   height="304.99716"
   xmlns="http://www.w3.org/2000/svg"
   xmlns:svg="http://www.w3.org/2000/svg">
  <defs
     id="defs262" />
  <g
     id="g262"
     transform="translate(-343.4016,-276.90395)">
    <path
       fill="#2154bf"
       d="m 511.99,381.83 q 0.34,0 0.5,-0.12 72.37,-51.11 142.82,-100.92 c 9.25,-6.54 20.4,-5.09 23.89,6.77 q 1.34,4.57 1.34,8.94 0.07,254.29 -0.08,284.87 a 0.46,0.46 0 0 1 -0.46,0.46 q -18.58,0.08 -168.03,0.07 -149.45,-0.01 -168.03,-0.09 a 0.46,0.46 0 0 1 -0.46,-0.47 q -0.14,-30.58 -0.03,-284.87 0,-4.37 1.34,-8.94 c 3.49,-11.86 14.64,-13.3 23.89,-6.76 q 70.44,49.82 142.8,100.94 0.17,0.12 0.51,0.12 z m -121.59,3.53 a 0.4,0.4 0 0 1 0.21,-0.35 l 52.13,-28.92 a 0.4,0.4 0 0 0 0.04,-0.68 l -80.55,-56.92 a 0.4,0.4 0 0 0 -0.63,0.32 v 264.48 a 0.4,0.4 0 0 0 0.4,0.4 h 28 a 0.4,0.4 0 0 0 0.4,-0.4 z m 271.71,39.52 a 0.41,0.41 0 0 0 0.29,-0.4 V 298.83 a 0.41,0.41 0 0 0 -0.65,-0.33 l -60.36,42.69 a 0.41,0.41 0 0 0 -0.17,0.33 v 101.03 a 0.41,0.41 0 0 0 0.53,0.39 z m -141.01,41.6 a 0.43,0.43 0 0 0 0.55,0.41 l 60.32,-18.05 a 0.43,0.43 0 0 0 0.31,-0.41 V 355.5 a 0.43,0.43 0 0 0 -0.68,-0.35 l -60.32,42.66 a 0.43,0.43 0 0 0 -0.18,0.35 z m 140.75,97.22 a 0.54,0.54 0 0 0 0.54,-0.54 V 445.25 a 0.54,0.54 0 0 0 -0.69,-0.52 l -60.09,17.98 a 0.54,0.54 0 0 0 -0.39,0.52 v 99.93 a 0.54,0.54 0 0 0 0.54,0.54 z M 425.6,461.44 a 10.49,10.49 0 0 0 -10.49,-10.49 10.49,10.49 0 0 0 -10.49,10.49 10.49,10.49 0 0 0 10.49,10.49 10.49,10.49 0 0 0 10.49,-10.49 z M 581.88,563.7 a 0.4,0.4 0 0 0 0.4,-0.4 v -94.29 a 0.4,0.4 0 0 0 -0.51,-0.39 l -60.38,18.07 a 0.4,0.4 0 0 0 -0.29,0.39 v 76.22 a 0.4,0.4 0 0 0 0.4,0.4 z"
       id="path178"
       style="fill:#ececec" />
    <path
       fill="#ffffff"
       d="m 390.4,385.36 v 177.93 a 0.4,0.4 0 0 1 -0.4,0.4 h -28 a 0.4,0.4 0 0 1 -0.4,-0.4 V 298.81 a 0.4,0.4 0 0 1 0.63,-0.32 l 80.55,56.92 a 0.4,0.4 0 0 1 -0.04,0.68 l -52.13,28.92 a 0.4,0.4 0 0 0 -0.21,0.35 z"
       id="path179"
       style="fill:#d4aa00" />
    <path
       fill="#ffffff"
       d="m 662.11,424.88 -60.36,18.06 a 0.41,0.41 0 0 1 -0.53,-0.39 V 341.52 a 0.41,0.41 0 0 1 0.17,-0.33 l 60.36,-42.69 a 0.41,0.41 0 0 1 0.65,0.33 v 125.65 a 0.41,0.41 0 0 1 -0.29,0.4 z"
       id="path180"
       style="fill:#8dd35f" />
    <path
       fill="#ffffff"
       d="m 521.1,466.48 v -68.32 a 0.43,0.43 0 0 1 0.18,-0.35 l 60.32,-42.66 a 0.43,0.43 0 0 1 0.68,0.35 v 92.93 a 0.43,0.43 0 0 1 -0.31,0.41 l -60.32,18.05 a 0.43,0.43 0 0 1 -0.55,-0.41 z"
       id="path181"
       style="fill:#d45500" />
    <path
       fill="#ffffff"
       d="m 661.85,563.7 h -60.09 a 0.54,0.54 0 0 1 -0.54,-0.54 v -99.93 a 0.54,0.54 0 0 1 0.39,-0.52 l 60.09,-17.98 a 0.54,0.54 0 0 1 0.69,0.52 v 117.91 a 0.54,0.54 0 0 1 -0.54,0.54 z"
       id="path182"
       style="fill:#ffdd55" />
    <circle
       fill="#ffffff"
       cx="415.10999"
       cy="461.44"
       r="10.49"
       id="circle182"
       style="fill:#8dd35f" />
    <path
       fill="#ffffff"
       d="M 581.88,563.7 H 521.5 a 0.4,0.4 0 0 1 -0.4,-0.4 v -76.22 a 0.4,0.4 0 0 1 0.29,-0.39 l 60.38,-18.07 a 0.4,0.4 0 0 1 0.51,0.39 v 94.29 a 0.4,0.4 0 0 1 -0.4,0.4 z"
       id="path183"
       style="fill:#3771c8" />
  </g>
</svg>
